<?xml version="1.0" encoding="UTF-8" standalone="no"?>
<!-- Created with Inkscape (http://www.inkscape.org/) -->

<svg
   width="19200"
   height="10800"
   viewBox="0 0 5079.9999 2857.5001"
   version="1.1"
   id="svg5"
   inkscape:version="1.1.1 (3bf5ae0d25, 2021-09-20)"
   sodipodi:docname="plug-exit.svg"
   xmlns:inkscape="http://www.inkscape.org/namespaces/inkscape"
   xmlns:sodipodi="http://sodipodi.sourceforge.net/DTD/sodipodi-0.dtd"
   xmlns="http://www.w3.org/2000/svg"
   xmlns:svg="http://www.w3.org/2000/svg">
  <sodipodi:namedview
     id="namedview7"
     pagecolor="#ffffff"
     bordercolor="#666666"
     borderopacity="1.0"
     inkscape:pageshadow="2"
     inkscape:pageopacity="0.0"
     inkscape:pagecheckerboard="0"
     inkscape:document-units="mm"
     showgrid="false"
     units="px"
     width="1920px"
     inkscape:zoom="0.075677083"
     inkscape:cx="9600"
     inkscape:cy="4624.914"
     inkscape:window-width="2492"
     inkscape:window-height="1362"
     inkscape:window-x="0"
     inkscape:window-y="0"
     inkscape:window-maximized="1"
     inkscape:current-layer="layer2">
    <sodipodi:guide
       position="0,285.75"
       orientation="0,1920"
       id="guide41" />
    <sodipodi:guide
       position="0,0"
       orientation="-1080,0"
       id="guide47" />
    <sodipodi:guide
       position="0,2857.5"
       orientation="0,19200"
       id="guide828" />
    <sodipodi:guide
       position="5080,2857.5"
       orientation="10800,0"
       id="guide830" />
    <sodipodi:guide
       position="5080,0"
       orientation="0,-19200"
       id="guide832" />
    <sodipodi:guide
       position="0,0"
       orientation="-10800,0"
       id="guide834" />
  </sodipodi:namedview>
  <defs
     id="defs2" />
  <g
     inkscape:groupmode="layer"
     id="layer2"
     inkscape:label="New"
     style="display:inline">
    <rect
       style="fill:#000000;fill-opacity:1;stroke:none;stroke-width:39.6875"
       id="rect8012"
       width="5786.042"
       height="3364.4124"
       x="-353.021"
       y="-253.45618" />
    <g
       aria-label="www.plug.org.au"
       id="text8527"
       style="font-size:349.588px;line-height:1.25;font-family:ProFontWindows;-inkscape-font-specification:ProFontWindows;letter-spacing:0px;word-spacing:0px;fill:#ffffff;stroke-width:8.73973">
      <path
         d="m 906.26023,1487.2089 q -15.92568,38.8431 -36.51253,38.8431 -24.08273,0 -41.1737,-25.6365 -17.09097,-25.6364 -17.09097,-61.7605 v -106.8186 h 38.84311 v 106.8186 q 0,20.1984 5.43804,34.5704 5.82647,14.3719 13.98352,14.3719 8.15705,0 13.59509,-14.3719 5.82647,-14.372 5.82647,-34.5704 v -106.8186 h 38.84311 v 106.8186 q 0,20.1984 5.43804,34.5704 5.82646,13.9835 13.98352,13.9835 8.15705,0 13.59509,-13.9835 5.82646,-14.372 5.82646,-34.5704 v -106.8186 h 38.84312 v 106.8186 q 0,36.1241 -17.09097,61.7605 -17.09097,25.6365 -41.1737,25.6365 -20.58685,0 -36.51253,-38.8431 z"
         id="path10675" />
      <path
         d="m 1139.3187,1487.2089 q -15.9257,38.8431 -36.5125,38.8431 -24.0828,0 -41.1737,-25.6365 -17.091,-25.6364 -17.091,-61.7605 v -106.8186 h 38.8431 v 106.8186 q 0,20.1984 5.438,34.5704 5.8265,14.3719 13.9836,14.3719 8.157,0 13.595,-14.3719 5.8265,-14.372 5.8265,-34.5704 v -106.8186 h 38.8431 v 106.8186 q 0,20.1984 5.4381,34.5704 5.8264,13.9835 13.9835,13.9835 8.157,0 13.5951,-13.9835 5.8264,-14.372 5.8264,-34.5704 v -106.8186 h 38.8432 v 106.8186 q 0,36.1241 -17.091,61.7605 -17.091,25.6365 -41.1737,25.6365 -20.5869,0 -36.5125,-38.8431 z"
         id="path10677" />
      <path
         d="m 1372.3771,1487.2089 q -15.9256,38.8431 -36.5125,38.8431 -24.0827,0 -41.1737,-25.6365 -17.091,-25.6364 -17.091,-61.7605 v -106.8186 h 38.8432 v 106.8186 q 0,20.1984 5.438,34.5704 5.8265,14.3719 13.9835,14.3719 8.1571,0 13.5951,-14.3719 5.8265,-14.372 5.8265,-34.5704 v -106.8186 h 38.8431 v 106.8186 q 0,20.1984 5.438,34.5704 5.8265,13.9835 13.9835,13.9835 8.1571,0 13.5951,-13.9835 5.8265,-14.372 5.8265,-34.5704 v -106.8186 h 38.8431 v 106.8186 q 0,36.1241 -17.091,61.7605 -17.0909,25.6365 -41.1737,25.6365 -20.5868,0 -36.5125,-38.8431 z"
         id="path10679" />
      <path
         d="m 1645.0556,1477.4981 q 0,16.3141 -10.8761,27.5786 -10.4877,11.2645 -26.4133,11.2645 -15.9257,0 -27.5786,-11.2645 -11.2645,-11.6529 -11.2645,-27.5786 0,-15.9257 11.2645,-27.1902 11.6529,-11.6529 27.5786,-11.6529 15.9256,0 26.4133,11.2645 10.8761,11.2645 10.8761,27.5786 z"
         id="path10681" />
      <path
         d="m 1937.9324,1448.3658 q 0,31.8513 -22.9174,54.7688 -22.9175,22.9174 -54.7688,22.9174 H 1782.56 v 77.2978 h -38.8431 v -271.5134 h 116.5293 q 31.8513,0 54.7688,22.9175 22.9174,22.9174 22.9174,54.7688 z m -38.8431,0 v -38.8431 q 0,-15.9257 -11.6529,-27.1902 -11.2645,-11.6529 -27.1902,-11.6529 H 1782.56 v 116.5293 h 77.6862 q 15.9257,0 27.1902,-11.2645 11.6529,-11.6529 11.6529,-27.5786 z"
         id="path10683" />
      <path
         d="m 2132.1477,1526.052 h -116.5293 v -38.8431 h 38.8431 v -194.2156 h -38.8431 v -38.8431 h 77.6862 v 233.0587 h 38.8431 z"
         id="path10685" />
      <path
         d="m 2365.2062,1526.052 v -53.6035 l -24.0827,24.4712 q -29.1324,29.1323 -53.6035,29.1323 -32.2398,0 -55.1573,-22.529 -22.529,-22.9174 -22.529,-55.1572 v -116.5294 h 38.8432 v 116.5294 q 0,15.9257 11.2645,27.5786 11.6529,11.2645 27.5786,11.2645 19.4215,0 38.8431,-19.4216 l 38.8431,-38.8431 v -97.1078 h 38.8431 v 194.2156 z"
         id="path10687" />
      <path
         d="m 2637.1078,1526.052 q 0,31.8514 -22.9175,54.3804 -22.9174,22.9174 -54.7688,22.9174 h -77.6862 v -38.8431 h 77.6862 q 15.9257,0 27.1902,-11.653 11.653,-11.2645 11.653,-26.8017 h -77.6863 q -31.8513,0 -54.7688,-22.9174 -22.9174,-22.9175 -22.9174,-54.7688 v -38.8431 q 0,-31.8514 22.9174,-54.7688 22.9175,-22.9175 54.7688,-22.9175 h 116.5294 z m -38.8431,-38.8431 v -116.5293 h -77.6863 q -15.9256,0 -27.5786,11.6529 -11.2645,11.2645 -11.2645,27.1902 v 38.8431 q 0,15.9257 11.2645,27.5786 11.653,11.2645 27.5786,11.2645 z"
         id="path10689" />
      <path
         d="m 2810.3479,1477.4981 q 0,16.3141 -10.8761,27.5786 -10.4877,11.2645 -26.4133,11.2645 -15.9257,0 -27.5786,-11.2645 -11.2645,-11.6529 -11.2645,-27.5786 0,-15.9257 11.2645,-27.1902 11.6529,-11.6529 27.5786,-11.6529 15.9256,0 26.4133,11.2645 10.8761,11.2645 10.8761,27.5786 z"
         id="path10691" />
      <path
         d="m 3103.2247,1448.3658 q 0,31.8513 -22.9174,54.7688 -22.9175,22.9174 -54.7688,22.9174 h -38.8431 q -31.8514,0 -54.7688,-22.9174 -22.9174,-22.9175 -22.9174,-54.7688 v -38.8431 q 0,-31.8514 22.9174,-54.7688 22.9174,-22.9175 54.7688,-22.9175 h 38.8431 q 31.8513,0 54.7688,22.9175 22.9174,22.9174 22.9174,54.7688 z m -38.8431,0 v -38.8431 q 0,-15.9257 -11.6529,-27.1902 -11.2645,-11.6529 -27.1902,-11.6529 h -38.8431 q -15.9257,0 -27.5786,11.6529 -11.2645,11.2645 -11.2645,27.1902 v 38.8431 q 0,15.9257 11.2645,27.5786 11.6529,11.2645 27.5786,11.2645 h 38.8431 q 15.9257,0 27.1902,-11.2645 11.6529,-11.6529 11.6529,-27.5786 z"
         id="path10693" />
      <path
         d="m 3180.9106,1331.8364 v 53.2151 l 24.4712,-24.0827 q 29.1323,-29.1324 53.215,-29.1324 32.2398,0 54.7688,22.9175 22.9175,22.529 22.9175,54.7688 H 3297.44 q 0,-15.9257 -11.653,-27.1902 -11.2645,-11.6529 -27.1902,-11.6529 -19.4215,0 -38.8431,19.4215 l -38.8431,38.8431 v 97.1078 h -38.8431 v -194.2156 z"
         id="path10695" />
      <path
         d="m 3569.3417,1526.052 q 0,31.8514 -22.9175,54.3804 -22.9174,22.9174 -54.7688,22.9174 h -77.6862 v -38.8431 h 77.6862 q 15.9257,0 27.1902,-11.653 11.6529,-11.2645 11.6529,-26.8017 h -77.6862 q -31.8513,0 -54.7688,-22.9174 -22.9174,-22.9175 -22.9174,-54.7688 v -38.8431 q 0,-31.8514 22.9174,-54.7688 22.9175,-22.9175 54.7688,-22.9175 h 116.5294 z m -38.8432,-38.8431 v -116.5293 h -77.6862 q -15.9257,0 -27.5786,11.6529 -11.2645,11.2645 -11.2645,27.1902 v 38.8431 q 0,15.9257 11.2645,27.5786 11.6529,11.2645 27.5786,11.2645 z"
         id="path10697" />
      <path
         d="m 3742.5816,1477.4981 q 0,16.3141 -10.8761,27.5786 -10.4876,11.2645 -26.4133,11.2645 -15.9256,0 -27.5786,-11.2645 -11.2645,-11.6529 -11.2645,-27.5786 0,-15.9257 11.2645,-27.1902 11.653,-11.6529 27.5786,-11.6529 15.9257,0 26.4133,11.2645 10.8761,11.2645 10.8761,27.5786 z"
         id="path10699" />
      <path
         d="m 4035.4586,1331.8364 v 194.2156 h -38.8431 v -53.6035 l -24.0827,24.4712 q -29.1324,29.1323 -53.6035,29.1323 -32.2398,0 -55.1573,-22.529 -22.529,-22.9174 -22.529,-55.1572 v -38.8431 q 0,-32.2398 22.529,-54.7688 22.9175,-22.9175 55.1573,-22.9175 z m -116.5293,38.8432 q -15.9257,0 -27.5786,11.6529 -11.2645,11.2645 -11.2645,27.1902 v 38.8431 q 0,15.9257 11.2645,27.5786 11.6529,11.2645 27.5786,11.2645 19.4215,0 38.8431,-19.4216 l 38.8431,-38.8431 v -58.2646 z"
         id="path10701" />
      <path
         d="m 4229.6738,1526.052 v -53.6035 l -24.0827,24.4712 q -29.1323,29.1323 -53.6035,29.1323 -32.2398,0 -55.1572,-22.529 -22.529,-22.9174 -22.529,-55.1572 v -116.5294 h 38.8431 v 116.5294 q 0,15.9257 11.2645,27.5786 11.6529,11.2645 27.5786,11.2645 19.4216,0 38.8431,-19.4216 l 38.8431,-38.8431 v -97.1078 h 38.8432 v 194.2156 z"
         id="path10703" />
    </g>
  </g>
</svg>
